<svg width="181" height="16" viewBox="0 0 181 16" fill="none" xmlns="http://www.w3.org/2000/svg">
<path d="M7.9257 15.264C6.79503 15.264 5.7657 15.0827 4.8377 14.72C3.9097 14.3573 3.1097 13.8453 2.4377 13.184C1.7657 12.5227 1.24836 11.7493 0.885695 10.864C0.523029 9.968 0.341695 8.992 0.341695 7.936C0.341695 6.88 0.523029 5.90933 0.885695 5.024C1.24836 4.13867 1.7657 3.37067 2.4377 2.72C3.12036 2.06933 3.93103 1.56267 4.8697 1.2C5.80836 0.837333 6.84836 0.655999 7.9897 0.655999C9.08836 0.655999 10.0964 0.831999 11.0137 1.184C11.931 1.52533 12.7204 2.01067 13.3817 2.64C14.0537 3.25867 14.571 3.99467 14.9337 4.848C15.307 5.70133 15.4937 6.64 15.4937 7.664C15.4937 8.58133 15.371 9.376 15.1257 10.048C14.8804 10.7093 14.5284 11.216 14.0697 11.568C13.6217 11.92 13.0724 12.096 12.4217 12.096C11.7604 12.096 11.2324 11.8987 10.8377 11.504C10.4537 11.1093 10.2617 10.5387 10.2617 9.792V8.88L10.3257 7.968L10.1817 5.888V4.064H11.9577V9.504C11.9577 9.90933 12.0377 10.1973 12.1977 10.368C12.3684 10.528 12.5657 10.608 12.7897 10.608C13.0777 10.608 13.323 10.496 13.5257 10.272C13.7284 10.048 13.8777 9.71733 13.9737 9.28C14.0804 8.84267 14.1337 8.31467 14.1337 7.696C14.1337 6.84267 13.9844 6.064 13.6857 5.36C13.3977 4.656 12.9764 4.05333 12.4217 3.552C11.8777 3.04 11.227 2.65067 10.4697 2.384C9.72303 2.10667 8.89636 1.968 7.9897 1.968C7.0617 1.968 6.21903 2.11733 5.4617 2.416C4.70436 2.704 4.0537 3.11467 3.5097 3.648C2.9657 4.18133 2.54436 4.816 2.2457 5.552C1.9577 6.27733 1.8137 7.072 1.8137 7.936C1.8137 8.82133 1.9577 9.632 2.2457 10.368C2.5337 11.104 2.94436 11.7333 3.4777 12.256C4.0217 12.7893 4.66703 13.2 5.4137 13.488C6.16036 13.7867 6.9977 13.936 7.9257 13.936C8.41636 13.936 8.9337 13.8773 9.4777 13.76C10.0217 13.6533 10.539 13.4773 11.0297 13.232L11.4617 14.512C10.971 14.7573 10.4057 14.944 9.7657 15.072C9.1257 15.2 8.51236 15.264 7.9257 15.264ZM7.5097 12.096C6.7737 12.096 6.1177 11.9253 5.5417 11.584C4.9657 11.232 4.50703 10.752 4.1657 10.144C3.83503 9.52533 3.6697 8.816 3.6697 8.016C3.6697 7.22667 3.83503 6.528 4.1657 5.92C4.49636 5.30133 4.9497 4.82133 5.5257 4.48C6.11236 4.13867 6.7737 3.968 7.5097 3.968C8.22436 3.968 8.84836 4.128 9.3817 4.448C9.91503 4.75733 10.331 5.21067 10.6297 5.808C10.9284 6.40533 11.0777 7.14133 11.0777 8.016C11.0777 8.89067 10.9337 9.632 10.6457 10.24C10.3577 10.848 9.94703 11.312 9.4137 11.632C8.88036 11.9413 8.2457 12.096 7.5097 12.096ZM7.8457 10.544C8.30436 10.544 8.7097 10.448 9.0617 10.256C9.4137 10.0533 9.69103 9.76 9.8937 9.376C10.107 8.992 10.2137 8.53867 10.2137 8.016C10.2137 7.48267 10.107 7.03467 9.8937 6.672C9.69103 6.29867 9.4137 6.016 9.0617 5.824C8.7097 5.62133 8.30436 5.52 7.8457 5.52C7.37636 5.52 6.96036 5.62133 6.5977 5.824C6.2457 6.02667 5.96836 6.31467 5.7657 6.688C5.5737 7.06133 5.4777 7.504 5.4777 8.016C5.4777 8.53867 5.5737 8.98667 5.7657 9.36C5.96836 9.73333 6.2457 10.0267 6.5977 10.24C6.96036 10.4427 7.37636 10.544 7.8457 10.544ZM24.4726 12.16C23.6192 12.16 22.8246 12.0213 22.0886 11.744C21.3632 11.456 20.7286 11.056 20.1846 10.544C19.6512 10.0213 19.2352 9.408 18.9366 8.704C18.6379 8 18.4886 7.232 18.4886 6.4C18.4886 5.568 18.6379 4.8 18.9366 4.096C19.2352 3.392 19.6566 2.784 20.2006 2.272C20.7446 1.74933 21.3792 1.34933 22.1046 1.072C22.8299 0.783999 23.6246 0.639999 24.4886 0.639999C25.4059 0.639999 26.2432 0.8 27.0006 1.12C27.7579 1.42933 28.3979 1.89333 28.9206 2.512L27.5766 3.776C27.1712 3.33867 26.7179 3.01333 26.2166 2.8C25.7152 2.576 25.1712 2.464 24.5846 2.464C23.9979 2.464 23.4592 2.56 22.9686 2.752C22.4886 2.944 22.0672 3.216 21.7046 3.568C21.3526 3.92 21.0752 4.336 20.8726 4.816C20.6806 5.296 20.5846 5.824 20.5846 6.4C20.5846 6.976 20.6806 7.504 20.8726 7.984C21.0752 8.464 21.3526 8.88 21.7046 9.232C22.0672 9.584 22.4886 9.856 22.9686 10.048C23.4592 10.24 23.9979 10.336 24.5846 10.336C25.1712 10.336 25.7152 10.2293 26.2166 10.016C26.7179 9.792 27.1712 9.456 27.5766 9.008L28.9206 10.288C28.3979 10.896 27.7579 11.36 27.0006 11.68C26.2432 12 25.4006 12.16 24.4726 12.16ZM40.3856 0.799999H42.4656V12H40.3856V0.799999ZM34.5936 12H32.5136V0.799999H34.5936V12ZM40.5456 7.2H34.4176V5.424H40.5456V7.2ZM45.4827 12L50.5227 0.799999H52.5707L57.6267 12H55.4507L51.1147 1.904H51.9467L47.6267 12H45.4827ZM47.8027 9.408L48.3627 7.776H54.4107L54.9707 9.408H47.8027ZM60.6511 12V0.799999H62.7311V10.24H68.5871V12H60.6511ZM73.0543 12V2.56H69.3423V0.799999H78.8463V2.56H75.1343V12H73.0543ZM86.6202 12.16C85.0842 12.16 83.8789 11.728 83.0042 10.864C82.1402 10 81.7082 8.752 81.7082 7.12V0.799999H83.7882V7.04C83.7882 8.192 84.0335 9.02933 84.5242 9.552C85.0255 10.0747 85.7295 10.336 86.6362 10.336C87.5429 10.336 88.2415 10.0747 88.7322 9.552C89.2229 9.02933 89.4682 8.192 89.4682 7.04V0.799999H91.5162V7.12C91.5162 8.752 91.0789 10 90.2042 10.864C89.3402 11.728 88.1455 12.16 86.6202 12.16ZM94.3689 13.216V12H102.369V13.216H94.3689ZM107.813 9.36L107.701 6.896L113.573 0.799999H115.909L111.029 5.984L109.877 7.248L107.813 9.36ZM105.957 12V0.799999H108.037V12H105.957ZM113.765 12L109.477 6.896L110.853 5.376L116.197 12H113.765ZM121.134 5.456H126.702V7.168H121.134V5.456ZM121.294 10.256H127.614V12H119.214V0.799999H127.39V2.544H121.294V10.256ZM131.532 12V0.799999H136.78C138.124 0.799999 139.148 1.06667 139.852 1.6C140.556 2.12267 140.908 2.82667 140.908 3.712C140.908 4.30933 140.77 4.82133 140.492 5.248C140.215 5.664 139.842 5.98933 139.372 6.224C138.914 6.448 138.412 6.56 137.868 6.56L138.156 5.984C138.786 5.984 139.351 6.10133 139.852 6.336C140.354 6.56 140.748 6.89067 141.036 7.328C141.335 7.76533 141.484 8.30933 141.484 8.96C141.484 9.92 141.116 10.6667 140.38 11.2C139.644 11.7333 138.551 12 137.1 12H131.532ZM133.612 10.368H136.972C137.751 10.368 138.348 10.24 138.764 9.984C139.18 9.728 139.388 9.31733 139.388 8.752C139.388 8.19733 139.18 7.792 138.764 7.536C138.348 7.26933 137.751 7.136 136.972 7.136H133.452V5.52H136.556C137.282 5.52 137.836 5.392 138.22 5.136C138.615 4.88 138.812 4.496 138.812 3.984C138.812 3.46133 138.615 3.072 138.22 2.816C137.836 2.56 137.282 2.432 136.556 2.432H133.612V10.368ZM147.224 5.456H152.792V7.168H147.224V5.456ZM147.384 10.256H153.704V12H145.304V0.799999H153.48V2.544H147.384V10.256ZM157.623 12V0.799999H162.519C163.735 0.799999 164.802 1.03467 165.719 1.504C166.636 1.97333 167.351 2.624 167.863 3.456C168.375 4.288 168.631 5.26933 168.631 6.4C168.631 7.52 168.375 8.50133 167.863 9.344C167.351 10.176 166.636 10.8267 165.719 11.296C164.802 11.7653 163.735 12 162.519 12H157.623ZM159.703 10.24H162.423C163.266 10.24 163.991 10.08 164.599 9.76C165.218 9.44 165.692 8.992 166.023 8.416C166.364 7.84 166.535 7.168 166.535 6.4C166.535 5.62133 166.364 4.94933 166.023 4.384C165.692 3.808 165.218 3.36 164.599 3.04C163.991 2.72 163.266 2.56 162.423 2.56H159.703V10.24ZM174.362 5.456H179.93V7.168H174.362V5.456ZM174.522 10.256H180.842V12H172.442V0.799999H180.618V2.544H174.522V10.256Z" fill="#264FAD"/>
</svg>
